REM DIRINDEX 1\2,1\3
REM DIRNAME cjc103,folder01,folder02
TITLE ""
FILE "Track73.mp3" MP3
  TRACK 01 AUDIO
    TITLE "2:cjc103_714"
    INDEX 01 00:00:00
  TRACK 02 AUDIO
    TITLE "0:"
    INDEX 01 00:01:50
  TRACK 03 AUDIO
    TITLE "3:cjc103_715"
    INDEX 01 00:02:26
  TRACK 04 AUDIO
    TITLE "0:"
    INDEX 01 00:03:74
  TRACK 05 AUDIO
    TITLE "3:cjc103_716"
    INDEX 01 00:05:09
  TRACK 06 AUDIO
    TITLE "0:"
    INDEX 01 00:06:57
